<svg xmlns="http://www.w3.org/2000/svg" viewBox="0 0 1122 1122"><title>loc-pharma</title><g id="Bg"><rect width="1122" height="1122" style="fill:#fff"/></g><g id="Object"><path d="M43.61,249.38a5,5,0,0,0,5,5.82H82.15a5,5,0,0,0,4.85-4c15.62-78.91,79-141.41,159.17-156.91a4.94,4.94,0,0,0,4.05-4.85V56.16a5,5,0,0,0-5.81-5C141.6,68.14,60.65,148.07,43.61,249.38Z" transform="translate(275.81 275.81)"/><path d="M488,317.46a4.94,4.94,0,0,0-4.86,4.16c-14.09,81.9-79.33,146.93-162.12,162a4.92,4.92,0,0,0-4.11,4.85v33.29a5,5,0,0,0,5.76,5c105.72-16.32,188.74-99,204.06-203.56a5.05,5.05,0,0,0-5-5.73Z" transform="translate(275.81 275.81)"/><path d="M410.52,317.46a5,5,0,0,0-4.77,3.68c-11.42,41.06-43.93,73.75-85.23,86a5,5,0,0,0-3.59,4.74v33.4a5,5,0,0,0,6.08,4.93c63.33-14.58,112.48-63.89,126.09-126.76a5,5,0,0,0-4.94-6Z" transform="translate(275.81 275.81)" style="fill:#69a857"/><path d="M284.32,559.64h0a21,21,0,0,0,14.8-6,20.56,20.56,0,0,0,6.19-14.74V375.26a89.64,89.64,0,0,0,66.75-65.81l167.85-.27A21,21,0,0,0,561,288.32a20.57,20.57,0,0,0-6.23-14.78,21.08,21.08,0,0,0-14.9-6.05l-167.79.33a89.35,89.35,0,0,0-66.75-65.62V31.5a21,21,0,0,0-42,.1V202.27a89.69,89.69,0,0,0-66.65,65.8l-166.32.32A20.92,20.92,0,0,0,9.38,289.18a20.52,20.52,0,0,0,6.18,14.71,20.94,20.94,0,0,0,14.81,6l166.28-.26a89.41,89.41,0,0,0,66.65,65.61V538.83A21,21,0,0,0,284.32,559.64Zm-63.73-269.7a64.6,64.6,0,1,1,64.6,64.59A64.6,64.6,0,0,1,220.59,289.94Z" transform="translate(275.81 275.81)"/><path d="M322.67,50.65a5.06,5.06,0,0,0-5.74,5V88.91a5,5,0,0,0,4.12,4.86c81.65,14.65,146.25,78,161.52,158.25a4.92,4.92,0,0,0,4.85,4.07h33.83a5,5,0,0,0,5-5.79C509.66,147.34,427.26,66.53,322.67,50.65Z" transform="translate(275.81 275.81)"/><path d="M316.93,132.05v33.44a5,5,0,0,0,3.6,4.74c40.11,11.84,71.91,43,84.16,82.32a5,5,0,0,0,4.72,3.54h34a5,5,0,0,0,4.9-6.12C433.63,188.84,385.11,141.26,323,127.12A5,5,0,0,0,316.93,132.05Z" transform="translate(275.81 275.81)" style="fill:#69a857"/><path d="M164.12,324.57a5,5,0,0,0-4.73-3.54h-33.8a5,5,0,0,0-4.91,6.1c14.62,61.52,63.56,109.43,126.17,123.39a5,5,0,0,0,6-4.92V412.3a4.94,4.94,0,0,0-3.63-4.75C208.63,395.87,176.37,364.38,164.12,324.57Z" transform="translate(275.81 275.81)" style="fill:#69a857"/><path d="M86.72,325.1A4.94,4.94,0,0,0,81.86,321H48.24a5,5,0,0,0-5,5.78C59.7,429.92,142.34,511.09,247.14,526.9a5,5,0,0,0,5.75-5V488.66a4.93,4.93,0,0,0-4.13-4.86C166.79,469.26,101.89,405.65,86.72,325.1Z" transform="translate(275.81 275.81)"/><path d="M244.09,127.66C183.36,142.41,135.92,189.2,121,249a5,5,0,0,0,4.89,6.16h34a5,5,0,0,0,4.72-3.48c12.33-38.27,43.17-68.66,82.06-80.85a4.94,4.94,0,0,0,3.53-4.72V132.57A5,5,0,0,0,244.09,127.66Z" transform="translate(275.81 275.81)" style="fill:#69a857"/></g></svg>